<svg width="32" height="32" viewBox="0 0 32 32" fill="none" xmlns="http://www.w3.org/2000/svg">
<path d="M10.7795 20.585C11.1572 19.7367 12.1966 19.4166 12.9862 19.9053C13.7234 20.3615 13.9357 21.338 13.4545 22.0592L10.3072 26.7756C9.99968 27.2364 9.3873 27.3794 8.90754 27.1024C8.4417 26.8335 8.25414 26.2562 8.47295 25.7648L10.7795 20.585Z" fill="#2B2C30"/>
<path d="M21.4592 20.585C21.0815 19.7367 20.0421 19.4166 19.2525 19.9053C18.5153 20.3615 18.303 21.338 18.7842 22.0592L21.9315 26.7756C22.239 27.2364 22.8514 27.3794 23.3312 27.1024C23.797 26.8335 23.9846 26.2562 23.7658 25.7648L21.4592 20.585Z" fill="#2B2C30"/>
<path d="M14.7661 7.48267C14.7661 6.78854 15.3288 6.22583 16.0229 6.22583C16.717 6.22583 17.2797 6.78854 17.2797 7.48267V7.72353C17.2797 8.41766 16.717 8.98037 16.0229 8.98037C15.3288 8.98037 14.7661 8.41766 14.7661 7.72353V7.48267Z" fill="white"/>
<path fill-rule="evenodd" clip-rule="evenodd" d="M17.7797 7.48267V7.72353C17.7797 8.69381 16.9932 9.48037 16.0229 9.48037C15.0526 9.48037 14.2661 8.69381 14.2661 7.72353V7.48267C14.2661 6.51239 15.0526 5.72583 16.0229 5.72583C16.9932 5.72583 17.7797 6.51239 17.7797 7.48267ZM16.0229 6.22583C15.3288 6.22583 14.7661 6.78854 14.7661 7.48267V7.72353C14.7661 8.41766 15.3288 8.98037 16.0229 8.98037C16.717 8.98037 17.2797 8.41766 17.2797 7.72353V7.48267C17.2797 6.78854 16.717 6.22583 16.0229 6.22583Z" fill="#2B2C30"/>
<path d="M25.4804 16.879C25.4804 22.1686 21.1923 26.4566 15.9027 26.4566C10.6131 26.4566 6.32507 22.1686 6.32507 16.879C6.32507 11.5894 10.6131 7.30133 15.9027 7.30133C21.1923 7.30133 25.4804 11.5894 25.4804 16.879Z" fill="white"/>
<path fill-rule="evenodd" clip-rule="evenodd" d="M25.9804 16.879C25.9804 22.4447 21.4685 26.9566 15.9027 26.9566C10.337 26.9566 5.82507 22.4447 5.82507 16.879C5.82507 11.3133 10.337 6.80133 15.9027 6.80133C21.4685 6.80133 25.9804 11.3133 25.9804 16.879ZM15.9027 26.4566C21.1923 26.4566 25.4804 22.1686 25.4804 16.879C25.4804 11.5894 21.1923 7.30133 15.9027 7.30133C10.6131 7.30133 6.32507 11.5894 6.32507 16.879C6.32507 22.1686 10.6131 26.4566 15.9027 26.4566Z" fill="#2B2C30"/>
<path fill-rule="evenodd" clip-rule="evenodd" d="M15.9544 8.18805C11.1828 8.18805 7.31464 12.0562 7.31464 16.8278C7.31464 21.5995 11.1828 25.4676 15.9544 25.4676C20.7261 25.4676 24.5942 21.5995 24.5942 16.8278C24.5942 12.0562 20.7261 8.18805 15.9544 8.18805ZM6.81464 16.8278C6.81464 11.7801 10.9067 7.68805 15.9544 7.68805C21.0022 7.68805 25.0942 11.7801 25.0942 16.8278C25.0942 21.8756 21.0022 25.9676 15.9544 25.9676C10.9067 25.9676 6.81464 21.8756 6.81464 16.8278Z" fill="#2B2C30"/>
<path d="M16.3668 11.5797C16.3668 11.3234 16.159 11.1156 15.9027 11.1156C15.6463 11.1156 15.4386 11.3234 15.4386 11.5797V16.4273C15.4386 16.6837 15.6463 16.8914 15.9027 16.8914C16.159 16.8914 16.3668 16.6837 16.3668 16.4273V11.5797Z" fill="#2B2C30"/>
<path d="M16.2299 17.5094C16.4589 17.2497 16.434 16.8536 16.1743 16.6246C15.9146 16.3956 15.5184 16.4206 15.2895 16.6803L12.9589 19.3238C12.7299 19.5835 12.7548 19.9796 13.0145 20.2086C13.2742 20.4376 13.6704 20.4126 13.8994 20.1529L16.2299 17.5094Z" fill="#2B2C30"/>
<path d="M16.8296 16.8791C16.8296 17.3914 16.4143 17.8067 15.902 17.8067C15.3897 17.8067 14.9744 17.3914 14.9744 16.8791C14.9744 16.3668 15.3897 15.9515 15.902 15.9515C16.4143 15.9515 16.8296 16.3668 16.8296 16.8791Z" fill="white"/>
<path fill-rule="evenodd" clip-rule="evenodd" d="M17.3296 16.8791C17.3296 17.6676 16.6904 18.3067 15.902 18.3067C15.1135 18.3067 14.4744 17.6676 14.4744 16.8791C14.4744 16.0907 15.1135 15.4515 15.902 15.4515C16.6904 15.4515 17.3296 16.0907 17.3296 16.8791ZM15.902 17.8067C16.4143 17.8067 16.8296 17.3914 16.8296 16.8791C16.8296 16.3668 16.4143 15.9515 15.902 15.9515C15.3897 15.9515 14.9744 16.3668 14.9744 16.8791C14.9744 17.3914 15.3897 17.8067 15.902 17.8067Z" fill="#2B2C30"/>
<path d="M20.1408 22.9907C20.2722 23.2184 20.1942 23.5095 19.9665 23.641C19.7388 23.7724 19.4477 23.6944 19.3162 23.4667C19.1848 23.239 19.2628 22.9479 19.4905 22.8164C19.7182 22.685 20.0093 22.763 20.1408 22.9907Z" fill="#2B2C30"/>
<path d="M12.6857 10.0784C12.8172 10.3061 12.7391 10.5972 12.5115 10.7287C12.2838 10.8602 11.9926 10.7821 11.8612 10.5545C11.7297 10.3268 11.8077 10.0356 12.0354 9.90417C12.2631 9.77272 12.5542 9.85073 12.6857 10.0784Z" fill="#2B2C30"/>
<path d="M9.78259 20.9123C9.55491 21.0437 9.26376 20.9657 9.13231 20.738C9.00085 20.5103 9.07886 20.2192 9.30655 20.0877C9.53424 19.9563 9.82538 20.0343 9.95684 20.262C10.0883 20.4897 10.0103 20.7808 9.78259 20.9123Z" fill="#2B2C30"/>
<path d="M22.695 13.4573C22.4674 13.5888 22.1762 13.5107 22.0448 13.2831C21.9133 13.0554 21.9913 12.7642 22.219 12.6328C22.4467 12.5013 22.7378 12.5793 22.8693 12.807C23.0007 13.0347 22.9227 13.3258 22.695 13.4573Z" fill="#2B2C30"/>
<path d="M22.6951 20.0877C22.9228 20.2191 23.0008 20.5103 22.8693 20.738C22.7379 20.9656 22.4467 21.0437 22.2191 20.9122C21.9914 20.7807 21.9134 20.4896 22.0448 20.2619C22.1763 20.0342 22.4674 19.9562 22.6951 20.0877Z" fill="#2B2C30"/>
<path d="M9.78287 12.6328C10.0106 12.7643 10.0886 13.0554 9.95711 13.2831C9.82566 13.5108 9.53451 13.5888 9.30682 13.4574C9.07914 13.3259 9.00113 13.0348 9.13258 12.8071C9.26404 12.5794 9.55518 12.5014 9.78287 12.6328Z" fill="#2B2C30"/>
<path d="M12.6856 23.4667C12.5541 23.6944 12.263 23.7724 12.0353 23.641C11.8076 23.5095 11.7296 23.2184 11.8611 22.9907C11.9925 22.763 12.2837 22.685 12.5113 22.8164C12.739 22.9479 12.817 23.239 12.6856 23.4667Z" fill="#2B2C30"/>
<path d="M20.1404 10.5545C20.009 10.7822 19.7178 10.8602 19.4901 10.7287C19.2625 10.5973 19.1844 10.3061 19.3159 10.0784C19.4474 9.85075 19.7385 9.77274 19.9662 9.90419C20.1939 10.0356 20.2719 10.3268 20.1404 10.5545Z" fill="#2B2C30"/>
<path d="M23.3305 16.2097C23.7068 16.2097 24.0119 16.5147 24.0119 16.891C24.0119 17.2673 23.7068 17.5723 23.3305 17.5723C22.9543 17.5723 22.6492 17.2673 22.6492 16.891C22.6492 16.5147 22.9543 16.2097 23.3305 16.2097Z" fill="#2B2C30"/>
<path d="M8.68562 16.157C9.02569 16.157 9.30136 16.4326 9.30136 16.7727C9.30136 17.1128 9.02569 17.3884 8.68562 17.3884C8.34556 17.3884 8.06989 17.1128 8.06989 16.7727C8.06989 16.4326 8.34556 16.157 8.68562 16.157Z" fill="#2B2C30"/>
<path d="M16.6449 24.0862C16.6449 24.4419 16.3566 24.7302 16.0009 24.7302C15.6452 24.7302 15.3568 24.4419 15.3568 24.0862C15.3568 23.7305 15.6452 23.4421 16.0009 23.4421C16.3566 23.4421 16.6449 23.7305 16.6449 24.0862Z" fill="#2B2C30"/>
<path d="M16.5301 9.40127C16.5301 9.75466 16.2436 10.0411 15.8902 10.0411C15.5368 10.0411 15.2503 9.75466 15.2503 9.40127C15.2503 9.04789 15.5368 8.76141 15.8902 8.76141C16.2436 8.76141 16.5301 9.04789 16.5301 9.40127Z" fill="#2B2C30"/>
</svg>
