<svg width="18" height="26" viewBox="0 0 18 26" fill="none" xmlns="http://www.w3.org/2000/svg">
<path fill-rule="evenodd" clip-rule="evenodd" d="M9.00787 19.1037C9.28402 19.1037 9.50787 19.3276 9.50787 19.6037V23.9659C9.50787 24.2421 9.28402 24.4659 9.00787 24.4659C8.73173 24.4659 8.50787 24.2421 8.50787 23.9659V19.6037C8.50787 19.3276 8.73173 19.1037 9.00787 19.1037Z" fill="#2B2C30"/>
<path fill-rule="evenodd" clip-rule="evenodd" d="M9.31769 1.04002C9.35144 1.31409 9.15662 1.56363 8.88255 1.59738C8.13966 1.68886 7.3959 1.87819 6.66786 2.17289C2.19759 3.98242 0.0406375 9.0732 1.85016 13.5435C3.65969 18.0137 8.75047 20.1707 13.2207 18.3612C14.019 18.038 14.7428 17.6107 15.3832 17.1015C15.5994 16.9297 15.9139 16.9656 16.0858 17.1817C16.2576 17.3979 16.2217 17.7124 16.0056 17.8843C15.2909 18.4525 14.484 18.9286 13.596 19.2881C8.61375 21.3049 2.93998 18.9009 0.923226 13.9187C-1.09353 8.93648 1.31044 3.26271 6.29265 1.24596C7.10251 0.918128 7.93139 0.706949 8.76033 0.604874C9.03441 0.571125 9.28394 0.765946 9.31769 1.04002Z" fill="#2B2C30"/>
<path fill-rule="evenodd" clip-rule="evenodd" d="M5.74323 0.840504C5.98957 0.715723 6.29042 0.814268 6.4152 1.06061L15.3528 18.7051C15.4775 18.9515 15.379 19.2523 15.1327 19.3771C14.8863 19.5019 14.5855 19.4033 14.4607 19.157L5.52312 1.51248C5.39834 1.26614 5.49689 0.965285 5.74323 0.840504Z" fill="#2B2C30"/>
<path d="M17.2901 10.4652C17.2901 14.5407 13.9863 17.8445 9.91083 17.8445C5.83537 17.8445 2.53156 14.5407 2.53156 10.4652C2.53156 6.38975 5.83537 3.08594 9.91083 3.08594C13.9863 3.08594 17.2901 6.38975 17.2901 10.4652Z" fill="white"/>
<path fill-rule="evenodd" clip-rule="evenodd" d="M17.7901 10.4652C17.7901 14.8168 14.2624 18.3445 9.91083 18.3445C5.55923 18.3445 2.03156 14.8168 2.03156 10.4652C2.03156 6.11361 5.55923 2.58594 9.91083 2.58594C14.2624 2.58594 17.7901 6.11361 17.7901 10.4652ZM9.91083 17.8445C13.9863 17.8445 17.2901 14.5407 17.2901 10.4652C17.2901 6.38975 13.9863 3.08594 9.91083 3.08594C5.83537 3.08594 2.53156 6.38975 2.53156 10.4652C2.53156 14.5407 5.83537 17.8445 9.91083 17.8445Z" fill="#2B2C30"/>
<path fill-rule="evenodd" clip-rule="evenodd" d="M7.57181 5.98561C7.64413 5.90365 7.76131 5.87817 7.86113 5.9227L9.93833 6.84946C9.94168 6.85095 9.94499 6.85252 9.94827 6.85416L11.0348 7.39743C11.1436 7.45184 11.1975 7.57672 11.1624 7.69322L10.5552 9.70651C10.5233 9.81208 10.4261 9.88432 10.3158 9.88432H9.20651L9.29466 10.3956L10.4299 10.9778C10.4985 11.0129 10.5471 11.0778 10.5614 11.1536C10.5758 11.2293 10.5544 11.3075 10.5035 11.3654L9.15972 12.8924V13.7887C9.15972 13.8615 9.128 13.9307 9.07285 13.9782L7.9224 14.9688C7.83472 15.0443 7.70669 15.0498 7.6129 14.9821L6.47035 14.1569L5.16843 13.363C5.11528 13.3306 5.07614 13.2796 5.05865 13.2198L4.67517 11.9096C4.65793 11.8507 4.66295 11.7875 4.68928 11.7321L5.24837 10.5551L4.68479 9.22025C4.65585 9.15171 4.65894 9.07384 4.69323 9.0078L5.55606 7.34604C5.56134 7.33588 5.56731 7.32609 5.57393 7.31674L6.1172 6.54978C6.16407 6.48361 6.24012 6.44428 6.32121 6.44428H7.1671L7.57181 5.98561ZM7.82518 6.45417L7.46737 6.85969C7.41992 6.91347 7.35164 6.94428 7.27991 6.94428H6.45049L5.99189 7.59172L5.1911 9.13397L5.75259 10.4638C5.78033 10.5295 5.7787 10.6039 5.7481 10.6683L5.1818 11.8606L5.51134 12.9865L6.73897 13.7351C6.74452 13.7384 6.74993 13.742 6.75519 13.7458L7.74567 14.4612L8.65972 13.6741V12.7981C8.65972 12.7373 8.68187 12.6785 8.72204 12.6329L9.916 11.2761L8.95542 10.7835C8.88549 10.7477 8.83649 10.681 8.82314 10.6035L8.66335 9.6768C8.65083 9.60414 8.67101 9.52965 8.71851 9.47326C8.76601 9.41687 8.83599 9.38432 8.90972 9.38432H10.1301L10.6228 7.75046L9.72959 7.30383L7.82518 6.45417Z" fill="#2B2C30"/>
<path fill-rule="evenodd" clip-rule="evenodd" d="M15.6099 8.94258C15.6865 8.98742 15.7337 9.06957 15.7337 9.15839V10.9263C15.7337 10.9622 15.7259 10.9977 15.711 11.0303L15.1187 12.326V13.5783C15.1187 13.673 15.0652 13.7595 14.9805 13.8019L13.2126 14.6858C13.1427 14.7208 13.0604 14.7211 12.9903 14.6865C12.9202 14.652 12.8703 14.5867 12.8554 14.51L12.5863 13.1263C12.5772 13.0796 12.5817 13.0313 12.5991 12.987L13.0721 11.7864L12.8553 10.6664C12.8441 10.6084 12.8538 10.5483 12.8826 10.4967L13.4207 9.53587C13.4595 9.46655 13.529 9.41981 13.6078 9.40996L14.789 9.26231L15.3611 8.94049C15.4385 8.89695 15.5332 8.89775 15.6099 8.94258ZM15.2337 9.58585L14.9913 9.72218C14.963 9.73809 14.9319 9.74834 14.8997 9.75236L13.7952 9.89042L13.3636 10.6612L13.5768 11.7628C13.5858 11.8095 13.5814 11.8577 13.564 11.9019L13.091 13.1025L13.2833 14.0914L14.6187 13.4238V12.2715C14.6187 12.2357 14.6264 12.2002 14.6413 12.1676L15.2337 10.8719V9.58585Z" fill="#2B2C30"/>
<path d="M8.93428 22.4248C6.57766 22.4248 4.66724 23.3735 4.66724 24.5438H13.2013C13.2013 23.3735 11.2909 22.4248 8.93428 22.4248Z" fill="white"/>
<path fill-rule="evenodd" clip-rule="evenodd" d="M4.66724 25.0438C4.39109 25.0438 4.16724 24.82 4.16724 24.5438C4.16724 23.6655 4.87058 23.0069 5.69464 22.5976C6.54958 22.1731 7.69565 21.9248 8.93428 21.9248C10.1729 21.9248 11.319 22.1731 12.1739 22.5976C12.998 23.0069 13.7013 23.6655 13.7013 24.5438C13.7013 24.82 13.4775 25.0438 13.2013 25.0438H4.66724ZM13.0818 24.0438C12.6293 23.1148 10.9441 22.4248 8.93428 22.4248C6.92449 22.4248 5.23924 23.1148 4.78671 24.0438C4.70862 24.2041 4.66724 24.3716 4.66724 24.5438H13.2013C13.2013 24.3716 13.1599 24.2041 13.0818 24.0438Z" fill="#2B2C30"/>
<path d="M3.49109 25.0334C3.49109 24.9011 3.59831 24.7939 3.73057 24.7939H14.2821C14.4143 24.7939 14.5215 24.9011 14.5215 25.0334C14.5215 25.1656 14.4143 25.2728 14.2821 25.2728H3.73057C3.59831 25.2728 3.49109 25.1656 3.49109 25.0334Z" fill="#2B2C30"/>
<path fill-rule="evenodd" clip-rule="evenodd" d="M14.2821 25.2728C14.4143 25.2728 14.5215 25.1656 14.5215 25.0334C14.5215 24.9011 14.4143 24.7939 14.2821 24.7939H3.73057C3.59831 24.7939 3.49109 24.9011 3.49109 25.0334C3.49109 25.1656 3.59831 25.2728 3.73057 25.2728H14.2821ZM3.73057 24.2939H14.2821C14.6905 24.2939 15.0215 24.625 15.0215 25.0334C15.0215 25.4418 14.6905 25.7728 14.2821 25.7728H3.73057C3.32216 25.7728 2.99109 25.4418 2.99109 25.0334C2.99109 24.625 3.32216 24.2939 3.73057 24.2939Z" fill="#2B2C30"/>
</svg>
