<svg width="32" height="32" viewBox="0 0 32 32" fill="none" xmlns="http://www.w3.org/2000/svg">
<path d="M24.807 15.9999C24.807 20.6547 21.0336 24.4281 16.3789 24.4281C11.7241 24.4281 7.95068 20.6547 7.95068 15.9999C7.95068 11.3452 11.7241 7.57178 16.3789 7.57178C21.0336 7.57178 24.807 11.3452 24.807 15.9999Z" fill="white"/>
<path fill-rule="evenodd" clip-rule="evenodd" d="M25.307 15.9999C25.307 20.9308 21.3097 24.9281 16.3789 24.9281C11.448 24.9281 7.45068 20.9308 7.45068 15.9999C7.45068 11.0691 11.448 7.07178 16.3789 7.07178C21.3097 7.07178 25.307 11.0691 25.307 15.9999ZM16.3789 24.4281C21.0336 24.4281 24.807 20.6547 24.807 15.9999C24.807 11.3452 21.0336 7.57178 16.3789 7.57178C11.7241 7.57178 7.95068 11.3452 7.95068 15.9999C7.95068 20.6547 11.7241 24.4281 16.3789 24.4281Z" fill="#2B2C30"/>
<path fill-rule="evenodd" clip-rule="evenodd" d="M15.3787 23.4281C20.0334 23.4281 23.8068 19.6546 23.8068 14.9999C23.8068 12.9271 23.0586 11.029 21.8174 9.56116C23.6458 11.1072 24.8068 13.418 24.8068 15.9999C24.8068 20.6546 21.0334 24.4281 16.3787 24.4281C13.7967 24.4281 11.486 23.2671 9.93994 21.4386C11.4078 22.6798 13.3059 23.4281 15.3787 23.4281Z" fill="#2B2C30"/>
<path d="M18.465 20.2674C25.1814 16.3897 29.5231 11.3356 28.1624 8.9787C27.34 7.55433 24.6231 7.44108 21.1194 8.43038C21.589 8.73409 22.0878 9.13293 22.2784 9.29438C24.0751 8.98197 25.3795 9.17176 25.8259 9.9449C26.8165 11.6606 23.2063 15.5995 17.7623 18.7426C12.3182 21.8857 7.10198 23.0428 6.1114 21.3271C5.63174 20.4963 6.23082 19.1443 7.59449 17.6137C7.50038 17.1266 7.44923 16.4151 7.44649 16.1133C4.44745 18.8504 2.95865 21.4946 3.84001 23.0212C5.20075 25.3781 11.7486 24.1452 18.465 20.2674Z" fill="white"/>
<path fill-rule="evenodd" clip-rule="evenodd" d="M7.93635 14.9893L7.94651 16.1087C7.94903 16.3874 7.99831 17.0678 8.08544 17.5189L8.13235 17.7617L7.96784 17.9463C7.3054 18.6898 6.85463 19.3623 6.62418 19.9229C6.39033 20.4918 6.41664 20.8557 6.54444 21.0771C6.67648 21.3058 6.99509 21.5165 7.64247 21.5925C8.27848 21.6671 9.13243 21.5964 10.1585 21.3688C12.2048 20.9149 14.8219 19.8629 17.5123 18.3096C20.2027 16.7563 22.4223 15.0158 23.8385 13.4706C24.5487 12.6958 25.0369 11.9916 25.2903 11.4035C25.5482 10.8049 25.525 10.4236 25.3929 10.1949C25.274 9.98895 25.0057 9.79743 24.4732 9.70522C23.9451 9.61374 23.2327 9.63594 22.3641 9.78698L22.1338 9.82704L21.9554 9.67595C21.774 9.52235 21.2931 9.13815 20.8479 8.85022L19.9194 8.24968L20.9836 7.94919C22.7654 7.44608 24.3818 7.21254 25.6802 7.30055C26.9601 7.3873 28.0589 7.79951 28.5954 8.72869C29.0395 9.49797 28.9821 10.4269 28.6346 11.3652C28.2858 12.3072 27.6206 13.3324 26.7219 14.3785C24.9215 16.4745 22.1088 18.7411 18.715 20.7004C15.3213 22.6598 11.952 23.9624 9.23668 24.4736C7.8814 24.7288 6.66093 24.7923 5.67068 24.6234C4.68436 24.4552 3.85117 24.0405 3.40703 23.2712C2.83359 22.278 3.08513 21.0266 3.74697 19.7859C4.42058 18.523 5.58683 17.1336 7.10947 15.7439L7.93635 14.9893ZM21.7573 8.26026C24.9505 7.45999 27.3906 7.642 28.1624 8.97869C29.5231 11.3356 25.1815 16.3897 18.465 20.2674C11.7486 24.1452 5.20078 25.3781 3.84004 23.0212C3.00706 21.5784 4.29117 19.1373 6.96643 16.563C7.12182 16.4135 7.2819 16.2635 7.44653 16.1132C7.44784 16.2581 7.46032 16.4975 7.48335 16.7611C7.50828 17.0465 7.5456 17.3604 7.59452 17.6137C6.23085 19.1442 5.63177 20.4963 6.11143 21.3271C7.10201 23.0428 12.3183 21.8857 17.7623 18.7426C23.2063 15.5995 26.8165 11.6606 25.8259 9.94489C25.3796 9.17175 24.0751 8.98196 22.2785 9.29437C22.1609 9.19484 21.9263 9.0051 21.6536 8.80304C21.484 8.67733 21.2996 8.54686 21.1195 8.43037C21.3351 8.36947 21.5478 8.31275 21.7573 8.26026Z" fill="#2B2C30"/>
<path fill-rule="evenodd" clip-rule="evenodd" d="M27.6626 8.72873C29.0234 11.0856 24.6817 16.1397 17.9653 20.0175C12.4028 23.2289 6.95602 24.6264 4.47559 23.673C6.6519 25.0729 12.4919 23.7162 18.4653 20.2675C25.1817 16.3897 29.5234 11.3356 28.1626 8.97873C27.9288 8.57379 27.5419 8.27482 27.0273 8.07703C27.2981 8.25118 27.5121 8.46799 27.6626 8.72873ZM21.9365 9.01807C22.0839 9.13303 22.2046 9.23166 22.2787 9.29442C23.4018 9.09913 24.3326 9.10008 24.9816 9.31708C24.3891 8.8842 23.3161 8.79739 21.9365 9.01807ZM7.50401 16.9736C7.36278 17.0974 7.20976 17.2388 7.09476 17.3637C6.03718 18.5126 5.13201 20.2463 5.61167 21.0771C5.77902 21.367 6.06696 21.5748 6.45624 21.705C6.31212 21.5997 6.19643 21.4739 6.11167 21.3271C5.63201 20.4963 6.23109 19.1443 7.59476 17.6137C7.55776 17.4222 7.52739 17.1959 7.50401 16.9736Z" fill="#2B2C30"/>
<path fill-rule="evenodd" clip-rule="evenodd" d="M25.2383 8.32321C24.6258 8.28469 23.9492 8.35531 23.3272 8.46888C23.2592 8.48128 23.1941 8.43628 23.1817 8.36836C23.1693 8.30045 23.2143 8.23535 23.2823 8.22295C23.9154 8.10735 24.6138 8.03344 25.254 8.07371C25.8911 8.11378 26.489 8.26808 26.9022 8.62651C26.9544 8.67174 26.96 8.75069 26.9148 8.80284C26.8695 8.85499 26.7906 8.8606 26.7384 8.81536C26.386 8.50972 25.8537 8.36192 25.2383 8.32321Z" fill="#2B2C30"/>
<path fill-rule="evenodd" clip-rule="evenodd" d="M12.8064 22.302C12.8639 22.4275 12.8088 22.5759 12.6833 22.6335C10.5413 23.6152 7.9167 23.9108 6.86666 23.9374C6.72864 23.9408 6.61392 23.8318 6.61043 23.6937C6.60695 23.5557 6.71601 23.441 6.85404 23.4375C7.8665 23.412 10.4169 23.1222 12.4749 22.1789C12.6005 22.1214 12.7488 22.1765 12.8064 22.302Z" fill="white"/>
<path d="M21.8433 14.1273C21.8433 14.3776 21.6404 14.5804 21.3901 14.5804C21.1399 14.5804 20.937 14.3776 20.937 14.1273C20.937 13.8771 21.1399 13.6742 21.3901 13.6742C21.6404 13.6742 21.8433 13.8771 21.8433 14.1273Z" fill="#2B2C30"/>
<path d="M14.3472 10.0144C14.3472 10.2647 14.1443 10.4675 13.894 10.4675C13.6438 10.4675 13.4409 10.2647 13.4409 10.0144C13.4409 9.76415 13.6438 9.56128 13.894 9.56128C14.1443 9.56128 14.3472 9.76415 14.3472 10.0144Z" fill="#2B2C30"/>
<path d="M11.0479 13.4711C11.0479 13.7213 10.845 13.9242 10.5947 13.9242C10.3445 13.9242 10.1416 13.7213 10.1416 13.4711C10.1416 13.2208 10.3445 13.0179 10.5947 13.0179C10.845 13.0179 11.0479 13.2208 11.0479 13.4711Z" fill="#2B2C30"/>
<path d="M13.2822 18.0336C13.2822 18.4219 12.9674 18.7367 12.5791 18.7367C12.1908 18.7367 11.876 18.4219 11.876 18.0336C11.876 17.6452 12.1908 17.3304 12.5791 17.3304C12.9674 17.3304 13.2822 17.6452 13.2822 18.0336Z" fill="#2B2C30"/>
<path d="M16.4434 13.4242C16.4434 13.8125 16.1286 14.1273 15.7402 14.1273C15.3519 14.1273 15.0371 13.8125 15.0371 13.4242C15.0371 13.0359 15.3519 12.7211 15.7402 12.7211C16.1286 12.7211 16.4434 13.0359 16.4434 13.4242Z" fill="#2B2C30"/>
<path d="M19.9136 10.4675C19.9136 10.8559 19.5988 11.1707 19.2104 11.1707C18.8221 11.1707 18.5073 10.8559 18.5073 10.4675C18.5073 10.0792 18.8221 9.7644 19.2104 9.7644C19.5988 9.7644 19.9136 10.0792 19.9136 10.4675Z" fill="#2B2C30"/>
<path d="M18.7793 17.3304C18.7793 17.7188 18.4645 18.0336 18.0762 18.0336C17.6878 18.0336 17.373 17.7188 17.373 17.3304C17.373 16.9421 17.6878 16.6273 18.0762 16.6273C18.4645 16.6273 18.7793 16.9421 18.7793 17.3304Z" fill="#2B2C30"/>
</svg>
